<?xml version="1.0" encoding="iso-8859-1"?>
<!-- Generator: Adobe Illustrator 19.0.0, SVG Export Plug-In . SVG Version: 6.00 Build 0)  -->
<svg version="1.1" id="Layer_1" xmlns="http://www.w3.org/2000/svg" xmlns:xlink="http://www.w3.org/1999/xlink" x="0px" y="0px"
	 viewBox="0 0 511.998 511.998" style="enable-background:new 0 0 511.998 511.998;" xml:space="preserve">
<g>
	<g>
		<path d="M508.241,3.754c-5-5-13.099-5-18.099,0L358.396,135.5V63.999c0-7.074-5.726-12.8-12.8-12.8c-7.074,0-12.8,5.726-12.8,12.8
			v102.4c0,7.074,5.726,12.8,12.8,12.8h102.4c7.074,0,12.8-5.726,12.8-12.8c0-7.074-5.726-12.8-12.8-12.8h-71.492L508.241,21.853
			C513.25,16.852,513.25,8.754,508.241,3.754z"/>
	</g>
</g>
<g>
	<g>
		<path d="M166.396,332.799h-102.4c-7.074,0-12.8,5.726-12.8,12.8c0,7.074,5.726,12.8,12.8,12.8h71.492L3.75,490.145
			c-5,5-5,13.099,0,18.099c5.001,5,13.099,5,18.099,0l131.746-131.746v71.501c0,7.074,5.726,12.8,12.8,12.8
			c7.074,0,12.8-5.726,12.8-12.8v-102.4C179.196,338.525,173.47,332.799,166.396,332.799z"/>
	</g>
</g>
<g>
</g>
<g>
</g>
<g>
</g>
<g>
</g>
<g>
</g>
<g>
</g>
<g>
</g>
<g>
</g>
<g>
</g>
<g>
</g>
<g>
</g>
<g>
</g>
<g>
</g>
<g>
</g>
<g>
</g>
</svg>
