<?xml version="1.0" encoding="iso-8859-1"?>
<!-- Generator: Adobe Illustrator 19.0.0, SVG Export Plug-In . SVG Version: 6.00 Build 0)  -->
<svg version="1.1" id="Layer_1" xmlns="http://www.w3.org/2000/svg" xmlns:xlink="http://www.w3.org/1999/xlink" x="0px" y="0px"
	 viewBox="0 0 512 512" style="enable-background:new 0 0 512 512;" xml:space="preserve">
<g>
	<path style="fill:#F3C74F;" d="M457.777,360.021c-5.133,0-10.312-1.569-14.776-4.825c-11.199-8.173-13.653-23.875-5.481-35.074
		c3.031-4.154,3.462-7.636,1.491-12.017c-4.067-9.037-15.951-16.94-27.057-17.996c-13.802-1.31-23.926-13.561-22.616-27.362
		c1.309-13.803,13.538-23.944,27.362-22.616c29.227,2.775,56.591,21.812,68.093,47.371c9.378,20.837,6.929,43.514-6.717,62.214
		C473.161,356.449,465.523,360.021,457.777,360.021z"/>
	<path style="fill:#F3C74F;" d="M54.221,360.021c-7.745,0-15.383-3.572-20.297-10.306c-13.646-18.7-16.094-41.377-6.718-62.214
		c11.501-25.558,38.866-44.595,68.092-47.371c13.813-1.326,26.052,8.816,27.362,22.616c1.31,13.802-8.816,26.052-22.617,27.362
		c-11.105,1.056-22.99,8.958-27.056,17.996c-1.973,4.382-1.541,7.864,1.49,12.017c8.173,11.199,5.718,26.901-5.481,35.074
		C64.534,358.451,59.354,360.021,54.221,360.021z"/>
</g>
<path style="opacity:0.2;enable-background:new    ;" d="M122.661,262.745c-1.31-13.802-13.551-23.943-27.362-22.616
	c-11.59,1.101-22.885,4.767-33.016,10.375c0.246,20.443,3.897,40.067,10.417,58.336c0.097-0.246,0.175-0.486,0.288-0.738
	c4.066-9.037,15.951-16.94,27.056-17.995C113.845,288.798,123.971,276.547,122.661,262.745z"/>
<path style="fill:#F3C74F;" d="M309.969,512c-13.864,0-25.102-11.239-25.102-25.102v-95.055c0-13.864,11.239-25.102,25.102-25.102
	s25.102,11.239,25.102,25.102v95.055C335.07,500.761,323.832,512,309.969,512z"/>
<path style="opacity:0.2;enable-background:new    ;" d="M309.969,366.74c-13.864,0-25.102,11.239-25.102,25.102v52.646
	c17.725-2.83,34.592-8.219,50.204-15.783v-36.863C335.07,377.979,323.832,366.74,309.969,366.74z"/>
<path style="fill:#F3C74F;" d="M202.029,512c-13.864,0-25.102-11.239-25.102-25.102v-95.055c0-13.864,11.239-25.102,25.102-25.102
	c13.864,0,25.102,11.239,25.102,25.102v95.055C227.132,500.761,215.894,512,202.029,512z"/>
<path style="opacity:0.2;enable-background:new    ;" d="M202.029,366.74c-13.864,0-25.102,11.239-25.102,25.102v36.863
	c15.612,7.565,32.479,12.953,50.204,15.783v-52.646C227.132,377.979,215.894,366.74,202.029,366.74z"/>
<circle style="fill:#0081C6;" cx="395.046" cy="85.353" r="57.653"/>
<circle style="fill:#F3C74F;" cx="395.046" cy="85.353" r="26.917"/>
<circle style="fill:#0081C6;" cx="116.942" cy="85.353" r="57.653"/>
<circle style="fill:#F3C74F;" cx="116.942" cy="85.353" r="26.917"/>
<path style="opacity:0.2;enable-background:new    ;" d="M151.028,38.86c-27.106,24.498-50.097,58.224-66.429,94.22
	c9.224,6.263,20.358,9.926,32.348,9.926c31.84,0,57.653-25.813,57.653-57.653C174.599,66.266,165.317,49.352,151.028,38.86z"/>
<path style="fill:#40BAB3;" d="M437.147,243.449C437.147,143.7,353.988,0,256,0S74.851,143.7,74.851,243.449
	S155.954,424.061,256,424.061S437.147,343.199,437.147,243.449z"/>
<path style="fill:#F0B0B7;" d="M256,226.447c27.863,0,44.09,10.702,56.147,0.479c21.958-18.618-10.704-47.178-56.147-47.178
	s-78.105,28.561-56.147,47.178C211.91,237.149,228.137,226.447,256,226.447z"/>
<path style="fill:#E6595A;" d="M256,203.992c-18.81,0-34.058,11.524-34.058,25.742c0,0.265,0.015,0.528,0.026,0.791
	c9.052-1.397,20.084-4.077,34.032-4.077c13.947,0,24.979,2.681,34.032,4.077c0.011-0.263,0.026-0.526,0.026-0.791
	C290.057,215.516,274.809,203.992,256,203.992z"/>
<g>
	<circle style="fill:#FFFFFF;" cx="149.715" cy="163.112" r="31.587"/>
	<circle style="fill:#FFFFFF;" cx="362.284" cy="163.112" r="31.587"/>
	<path style="fill:#FFFFFF;" d="M77.903,276.574C93.507,360.502,167.304,424.062,256,424.062s162.492-63.56,178.097-147.488H77.903
		L77.903,276.574z"/>
</g>
<path style="fill:#0081C6;" d="M109.97,350.318c32.971,44.718,86.095,73.744,146.03,73.744s113.059-29.026,146.03-73.744H109.97z"/>
<path style="opacity:0.2;enable-background:new    ;" d="M275.208,404.853c-100.045,0-181.149-80.863-181.149-180.612
	c0-60.053,30.148-136.021,75.518-186.987C113.702,86.579,74.85,175.274,74.85,243.449c0,99.749,81.103,180.613,181.149,180.613
	c55.005,0,104.28-24.449,137.502-63.037C361.763,388.335,320.421,404.853,275.208,404.853z"/>
<g>
	<path style="fill:#394049;" d="M149.714,202.913c-21.948,0-39.803-17.856-39.803-39.803s17.856-39.803,39.803-39.803
		c21.948,0,39.803,17.856,39.803,39.803S171.661,202.913,149.714,202.913z M149.714,139.738c-12.888,0-23.372,10.484-23.372,23.372
		s10.485,23.372,23.372,23.372c12.888,0,23.372-10.484,23.372-23.372C173.086,150.223,162.601,139.738,149.714,139.738z"/>
	<path style="fill:#394049;" d="M362.284,202.913c-21.947,0-39.803-17.856-39.803-39.803s17.856-39.803,39.803-39.803
		c21.948,0,39.804,17.856,39.804,39.803S384.232,202.913,362.284,202.913z M362.284,139.738c-12.888,0-23.372,10.484-23.372,23.372
		s10.484,23.372,23.372,23.372s23.373-10.484,23.373-23.372C385.657,150.223,375.172,139.738,362.284,139.738z"/>
</g>
<g>
	<path style="fill:#F3C74F;" d="M87.245,373.719c-22.6,0-41.951-8.421-53.322-24.005c-8.173-11.199-5.719-26.901,5.48-35.074
		c11.197-8.171,26.902-5.718,35.074,5.481c1.681,2.304,11.132,5.281,25.37,1.729c19.595-4.891,44.023-21.465,48.378-52.083
		c1.952-13.725,14.656-23.266,28.387-21.317c13.725,1.953,23.269,14.662,21.317,28.387c-7.867,55.314-51.204,85.059-85.927,93.724
		C103.491,372.684,95.166,373.719,87.245,373.719z"/>
	<path style="fill:#F3C74F;" d="M424.754,373.719c-7.923,0-16.242-1.034-24.759-3.16c-34.722-8.664-78.06-38.409-85.928-93.724
		c-1.953-13.725,7.592-26.435,21.317-28.387c13.713-1.946,26.435,7.591,28.387,21.317c4.355,30.618,28.783,47.193,48.379,52.083
		c14.241,3.556,23.69,0.575,25.37-1.729c8.171-11.2,23.874-13.653,35.074-5.481c11.199,8.173,13.653,23.875,5.481,35.074
		C466.706,365.296,447.351,373.719,424.754,373.719z"/>
</g>
<g style="opacity:0.3;">
	<path d="M112.472,255.836c-3.828,0-7.255-2.689-8.043-6.586c-0.9-4.447,1.975-8.783,6.422-9.682
		c15.973-3.234,33.357-12.955,51.67-28.895c3.422-2.979,8.611-2.62,11.59,0.803c2.978,3.422,2.619,8.611-0.803,11.59
		c-20.485,17.829-40.402,28.8-59.196,32.605C113.56,255.782,113.012,255.836,112.472,255.836z"/>
	<path d="M100.753,231.552c-3.779,0-7.181-2.625-8.018-6.467c-0.967-4.433,1.844-8.81,6.276-9.777
		c7.187-1.567,15.236-5.188,17.365-7.257c3.253-3.163,8.454-3.088,11.616,0.162c3.162,3.254,3.089,8.455-0.163,11.616
		c-5.846,5.685-18.344,10.011-25.317,11.531C101.922,231.49,101.333,231.552,100.753,231.552z"/>
	<path d="M399.526,255.836c-0.54,0-1.089-0.054-1.639-0.164c-18.794-3.805-38.712-14.774-59.196-32.605
		c-3.423-2.979-3.782-8.168-0.803-11.59c2.979-3.423,8.168-3.78,11.59-0.803c18.314,15.94,35.697,25.661,51.67,28.895
		c4.447,0.899,7.323,5.235,6.421,9.682C406.781,253.147,403.355,255.836,399.526,255.836z"/>
	<path d="M411.245,231.552c-0.579,0-1.168-0.062-1.757-0.191c-6.974-1.521-19.471-5.847-25.317-11.531
		c-3.253-3.163-3.326-8.364-0.162-11.616c3.161-3.251,8.362-3.328,11.616-0.162c2.127,2.069,10.176,5.689,17.364,7.257
		c4.433,0.967,7.243,5.344,6.277,9.777C418.425,228.928,415.024,231.552,411.245,231.552z"/>
</g>
<g>
</g>
<g>
</g>
<g>
</g>
<g>
</g>
<g>
</g>
<g>
</g>
<g>
</g>
<g>
</g>
<g>
</g>
<g>
</g>
<g>
</g>
<g>
</g>
<g>
</g>
<g>
</g>
<g>
</g>
</svg>
